<svg width="1000" height="1000" viewBox="0 0 264.583 264.583" xmlns:xlink="http://www.w3.org/1999/xlink" xmlns="http://www.w3.org/2000/svg"><defs><linearGradient id="prefix__b"><stop offset="0" stop-color="#cf548b"/><stop offset="1" stop-color="#fb65a8"/></linearGradient><linearGradient id="prefix__a"><stop offset="0" stop-color="#b5356e"/><stop offset="1" stop-color="#b5356e" stop-opacity="0"/></linearGradient><linearGradient xlink:href="#prefix__a" id="prefix__e" x1="409.265" y1="788.035" x2="409.265" y2="-42.021" gradientUnits="userSpaceOnUse" gradientTransform="matrix(.22042 0 0 .22023 60.936 -269.046)"/><linearGradient xlink:href="#prefix__b" id="prefix__c" x1="155.774" y1="220.94" x2="155.774" y2="1.906" gradientUnits="userSpaceOnUse"/><filter id="prefix__f" x="-.038" y="-.1" width="1.077" height="1.201" color-interpolation-filters="sRGB"><feGaussianBlur stdDeviation="2.744"/></filter><filter id="prefix__d" x="-.012" y="-.012" width="1.024" height="1.024" color-interpolation-filters="sRGB"><feGaussianBlur stdDeviation="1.22"/></filter></defs><g paint-order="markers stroke fill"><g color="#000"><path style="-inkscape-stroke:none" d="M265.291 111.423A109.517 109.517 0 01155.774 220.94 109.517 109.517 0 0146.257 111.423 109.517 109.517 0 01155.774 1.906a109.517 109.517 0 01109.517 109.517z" fill="url(#prefix__c)" transform="matrix(1.0588 0 0 1.0588 -32.642 14.317)"/><path style="mix-blend-mode:normal;-inkscape-stroke:none" d="M155.773-10.593c-67.24 0-122.015 54.775-122.015 122.015 0 67.24 54.776 122.018 122.015 122.018 67.24 0 122.018-54.778 122.018-122.018 0-67.24-54.778-122.015-122.018-122.015zm.001 12.499a109.517 109.517 0 01109.517 109.517A109.517 109.517 0 01155.774 220.94 109.517 109.517 0 0146.257 111.423 109.517 109.517 0 01155.774 1.906z" opacity=".25" filter="url(#prefix__d)" transform="matrix(1.0588 0 0 1.0588 -32.642 14.317)"/><path style="-inkscape-stroke:none" d="M132.29 3.1C61.098 3.1 3.1 61.097 3.1 132.29c0 71.194 57.997 129.193 129.19 129.193 71.194 0 129.193-58 129.193-129.193 0-71.193-57.999-129.19-129.192-129.19zm.001 13.235A115.957 115.957 0 01248.248 132.29a115.957 115.957 0 01-115.957 115.957A115.957 115.957 0 0116.335 132.291 115.957 115.957 0 01132.291 16.335z" fill="#fff"/></g><path style="-inkscape-stroke:none" d="M126.61-289.534l-.444.767L93.96-233.03l-13.957-24.154-.444.767-32.89 56.918a109.405 109.547 0 00-.166 2.334l33.5-57.974 13.366 23.131-16.106 27.873h32.212l7.536 13.041-10.567 18.287h-20.37l-16.11-27.878-.443.767-15.666 27.111h-5.76a109.405 109.547 0 00.221 1.023h4.948l-3.596 6.223a109.405 109.547 0 00.324 1.487l4.454-7.71h31.037L114.2-122.08l-3.337 5.775H77.04a109.405 109.547 0 001.022 1.023h32.21L100.26-97.955a109.405 109.547 0 00.898.491l10.297-17.82h7.856l-3.928-6.797 18.967-32.824h27.674l.348.602-9.037 15.639h18.074l24.353 42.145h-92.877a109.405 109.547 0 001.871 1.023h92.779l-24.945-43.168h49.222l-5.469 9.464h28.411a109.405 109.547 0 00.766-1.023h-27.404l4.877-8.441h27.69a109.405 109.547 0 00.655-1.2l-13.826-23.926 10.952-18.952h15.818a109.405 109.547 0 00.111-1.566l-7.512-13 6.767-11.713a109.405 109.547 0 00-.272-1.573l-7.086 12.262-40.34-69.81-.443.767-42.85 74.157-6.308-10.916h9.608zm0 2.045l47.574 82.332h-8.426l-20.31-35.149-.445.767-19.867 34.382h-15.07l-15.516-26.85zm89.34 21.392l39.749 68.788-7.827 13.544H225.97l-23.287-40.3-.443.767-22.844 39.533h-1.278l-4.87-8.43zm-70.503 27.836l19.129 33.104h-38.258zm-51.488 7.277l14.924 25.827H79.035zm108.724 8.965l22.105 38.254h-44.21zm-92.027 17.885h13.89l-6.945 12.018zm15.071 0h39.44l6.898 11.938-5.462 9.454h10.925l.639 1.105-14.856 25.709h-.697l-14.427-24.968-.443.766-13.985 24.202H97.872l9.161-15.855h22.317l-11.158-19.31zm-55.763 5.495l14.927 25.833H55.036zm186.326 2.353l7.235 12.521h-14.47zm-83.634 5.113l4.281 7.408h-8.561zm-55.055 1.103l9.976 17.264h-19.953zm61.108 7.328h.096l-.048.083zm1.278 0h45.392l10.952 18.952-13.928 24.103h-50.404l-8.445-14.616.348-.602h30.893l-15.447-26.732zm46.574 0h20.72l-10.36 17.93zm-47.804 2.128l14.265 24.686h-28.529zm-30.57 1.762l13.246 22.924H134.94zm-61.523 7.07h19.188l-9.594 16.602zm150.257 9.015l13.337 23.08h-26.674zm-140.505 7.862h36.752l-18.376 31.8zm66.547 1.625l7.855 13.593h-15.71zm-48.171 32.222l2.746 4.752h-5.492z" color="#000" fill="url(#prefix__e)" transform="matrix(1.0588 0 0 1.0588 -32.642 335.98)"/><g font-weight="600" font-size="98.12" font-family="Torus" letter-spacing="-3.175" word-spacing="0"><path style="line-height:.9;-inkscape-font-specification:'Torus Semi-Bold';mix-blend-mode:normal" d="M234.005 78.176c-3.532 0-5.789 2.551-5.789 6.083v32.674c0 3.533 2.257 6.084 5.79 6.084 3.433 0 5.789-2.551 5.789-6.084V84.26c0-3.532-2.356-6.083-5.79-6.083zM95.37 93.189c-14.915 0-25.61 10.694-25.61 25.314 0 14.522 10.695 25.315 25.61 25.315 14.914 0 25.609-10.793 25.609-25.315 0-14.62-10.695-25.314-25.61-25.314zm50.202 0c-9.812 0-18.643 4.513-18.643 15.404 0 9.714 7.26 11.873 15.405 14.13 8.242 2.256 11.382 3.336 11.382 6.476s-2.943 4.71-7.653 4.71c-6.28 0-9.518-2.552-12.167-5.005-1.668-1.472-4.22-2.649-7.163.197-2.355 2.256-2.65 4.807-.196 7.751 3.14 3.729 9.91 6.966 19.231 6.966 11.284 0 19.134-4.807 19.134-15.404 0-10.892-8.438-13.149-17.27-15.307-6.377-1.472-9.713-2.65-9.713-5.887 0-3.14 3.041-4.22 6.377-4.22 4.906 0 8.144 2.356 10.009 3.73 2.06 1.57 4.219 2.452 7.163-.59 2.943-3.238 1.668-5.592 0-7.26-3.925-4.22-10.303-5.691-15.896-5.691zm30.775.784c-3.533 0-5.79 2.551-5.79 5.986v20.391c0 16.68 11.165 23.468 21.37 23.468h3.164c10.204 0 21.369-6.787 21.369-23.468V99.96c0-3.435-2.257-5.986-5.79-5.986-3.532 0-5.789 2.551-5.789 5.986v19.312c0 9.93-5.114 13.443-11.176 13.464-6.233.072-11.569-3.32-11.569-13.464V99.959c0-3.435-2.257-5.986-5.79-5.986zm-80.977 9.91c8.634 0 14.03 6.378 14.03 14.62 0 8.242-5.396 14.522-14.03 14.522-8.635 0-14.031-6.28-14.031-14.522s5.396-14.62 14.03-14.62zm138.636 24.923c-4.219 0-7.555 3.336-7.555 7.457 0 4.22 3.336 7.555 7.555 7.555 4.22 0 7.556-3.335 7.556-7.555 0-4.12-3.337-7.457-7.556-7.457z" opacity=".25" filter="url(#prefix__f)" transform="matrix(1.0588 0 0 1.0588 -32.642 14.317)"/><path style="line-height:.9;-inkscape-font-specification:'Torus Semi-Bold'" d="M215.123 93.655c-3.74 0-6.13 2.701-6.13 6.441v34.595c0 3.74 2.39 6.442 6.13 6.442 3.636 0 6.13-2.702 6.13-6.442v-34.595c0-3.74-2.494-6.44-6.13-6.44zM68.334 109.55c-15.79 0-27.115 11.324-27.115 26.804 0 15.375 11.324 26.803 27.115 26.803 15.792 0 27.115-11.428 27.115-26.803 0-15.48-11.323-26.804-27.115-26.804zm53.154 0c-10.389 0-19.739 4.78-19.739 16.31 0 10.286 7.688 12.572 16.31 14.961 8.728 2.39 12.052 3.533 12.052 6.857 0 3.324-3.116 4.987-8.103 4.987-6.649 0-10.078-2.702-12.883-5.299-1.766-1.558-4.467-2.805-7.584.208-2.493 2.39-2.804 5.09-.207 8.207 3.325 3.948 10.493 7.376 20.362 7.376 11.947 0 20.259-5.09 20.259-16.31 0-11.532-8.935-13.922-18.285-16.207-6.752-1.559-10.285-2.805-10.285-6.233 0-3.325 3.22-4.468 6.753-4.468 5.194 0 8.623 2.494 10.597 3.948 2.181 1.663 4.467 2.597 7.584-.623 3.116-3.429 1.766-5.922 0-7.688-4.156-4.467-10.909-6.026-16.83-6.026zm32.585.832c-3.74 0-6.13 2.7-6.13 6.337v21.59c0 17.661 11.821 24.848 22.626 24.848h3.35c10.804 0 22.626-7.187 22.626-24.848v-21.59c0-3.637-2.39-6.337-6.13-6.337-3.74 0-6.13 2.7-6.13 6.337v20.447c0 10.515-5.415 14.234-11.834 14.256-6.599.077-12.249-3.514-12.249-14.256V116.72c0-3.637-2.39-6.337-6.13-6.337zm-85.739 10.492c9.143 0 14.857 6.753 14.857 15.48 0 8.726-5.714 15.376-14.857 15.376-9.142 0-14.856-6.65-14.856-15.376 0-8.727 5.714-15.48 14.856-15.48zm146.789 26.388c-4.468 0-8 3.533-8 7.896 0 4.467 3.532 8 8 8 4.467 0 8-3.533 8-8 0-4.363-3.533-7.896-8-7.896z" fill="#fff"/></g></g></svg>